<svg xmlns="http://www.w3.org/2000/svg" viewBox="0 0 2680 680" role="img" aria-label="gallery はりいしゃ">
<g transform="translate(0.000000,680.000000) scale(0.100000,-0.100000)"
fill="#2b2826" stroke="none">
<path d="M5543 5311 c-46 -29 -73 -88 -73 -160 0 -76 20 -101 120 -150 106
-51 113 -68 116 -270 1 -86 -3 -244 -7 -351 -5 -107 -16 -361 -24 -564 -8
-202 -20 -436 -27 -520 -27 -321 -11 -424 76 -504 77 -71 154 -65 236 17 75
75 104 140 104 231 2 689 -7 1307 -20 1408 -8 64 -14 184 -14 267 -1 334 -17
397 -125 486 -132 109 -288 157 -362 110z M4743 5285 c-53 -23 -75 -68 -71
-145 5 -95 33 -146 114 -204 116 -83 149 -201 139 -491 -14 -413 -36 -718 -67
-925 -13 -91 -20 -196 -21 -320 -2 -185 -2 -185 45 -283 89 -184 142 -234 239
-225 125 12 194 104 186 246 -3 42 -10 199 -16 347 -11 261 -22 485 -42 840
-5 94 -13 294 -18 445 -7 250 -10 280 -30 335 -13 33 -38 106 -56 163 -50 157
-95 200 -226 222 -86 13 -137 12 -176 -5z M13580 5009 c-184 -30 -202 -56
-219 -311 -11 -161 -30 -225 -73 -250 -17 -10 -97 -14 -313 -18 -318 -5 -323
-6 -362 -67 -15 -23 -18 -48 -16 -151 3 -196 29 -231 212 -289 82 -26 86 -26
265 -19 317 14 316 14 297 -199 -18 -194 -60 -321 -121 -362 -30 -21 -44 -23
-180 -23 -201 0 -234 -14 -374 -156 -118 -121 -130 -149 -134 -328 -5 -182 0
-201 86 -326 193 -280 218 -294 450 -249 348 66 409 108 524 360 57 124 108
145 224 90 83 -39 123 -77 169 -161 69 -126 142 -146 296 -81 211 88 224 163
68 408 -82 131 -109 154 -232 198 -101 37 -212 102 -258 151 -31 33 -31 110
-1 209 25 79 37 174 52 388 15 219 19 223 225 252 153 21 192 31 234 62 57 44
64 76 50 227 -18 192 -53 218 -217 161 -59 -21 -90 -25 -177 -25 -173 0 -176
4 -230 260 -56 267 -67 278 -245 249z m-385 -2063 c74 -31 21 -140 -74 -153
-141 -19 -105 144 37 167 1 0 18 -7 37 -14z M11622 4994 c-41 -29 -116 -221
-202 -519 -18 -60 -49 -162 -70 -225 -31 -92 -46 -164 -74 -365 -54 -383 -55
-429 -10 -735 27 -182 159 -557 239 -680 24 -36 66 -105 95 -155 125 -218 196
-218 431 1 58 55 129 118 158 142 61 51 77 81 125 229 53 164 47 223 -24 271
-40 27 -131 27 -242 1 -68 -16 -101 -7 -132 34 -20 28 -21 38 -20 380 1 394 8
464 85 832 45 217 62 431 39 499 -15 47 -56 94 -123 143 -29 20 -82 65 -119
100 -72 68 -110 80 -156 47z M21124 4779 c-68 -20 -71 -30 -94 -404 -6 -93
-15 -237 -20 -320 -34 -540 -32 -940 6 -1105 25 -108 111 -366 137 -412 14
-24 39 -79 56 -124 18 -45 47 -99 69 -124 20 -24 57 -71 82 -104 49 -65 158
-160 231 -200 70 -39 124 -45 339 -36 227 9 285 26 473 143 125 78 162 120
237 271 33 66 85 166 116 221 122 215 117 205 117 264 0 65 -20 109 -97 218
-108 152 -167 135 -323 -92 -34 -50 -102 -131 -150 -181 -81 -85 -92 -93 -144
-104 -197 -44 -427 91 -539 315 -57 113 -66 485 -20 780 29 187 33 655 6 720
-36 86 -242 236 -372 270 -65 17 -67 17 -110 4z M16354 4661 c-75 -34 -84 -82
-54 -271 10 -69 26 -219 35 -335 9 -115 25 -272 37 -348 21 -138 21 -138 -10
-370 -17 -128 -34 -261 -37 -297 -7 -72 -88 -397 -109 -439 -8 -14 -53 -82
-102 -151 -48 -69 -108 -156 -133 -195 -24 -38 -63 -95 -86 -125 -23 -30 -104
-147 -180 -260 -76 -113 -153 -222 -171 -244 -43 -51 -50 -86 -27 -134 39 -79
227 -132 404 -113 148 16 177 31 253 131 23 30 81 105 128 166 174 225 345
504 428 698 26 61 62 140 79 175 18 35 48 109 67 164 20 55 54 137 76 181 28
55 54 131 80 236 39 155 39 155 38 436 0 305 5 267 -68 539 -29 111 -112 357
-133 398 -77 146 -108 163 -319 171 -139 6 -159 4 -196 -13z M17845 4503 c-61
-16 -96 -72 -137 -221 -20 -70 -22 -103 -22 -352 -1 -271 -1 -277 28 -384 93
-360 199 -563 398 -767 126 -129 202 -176 303 -186 116 -12 151 9 320 186 128
136 155 172 155 212 0 48 -29 61 -127 60 -181 -2 -225 28 -378 259 -122 183
-129 203 -144 435 -15 215 -48 489 -68 550 -39 122 -219 236 -328 208z M19620
4485 c-8 -2 -37 -7 -64 -10 -117 -16 -140 -122 -52 -238 43 -56 102 -195 145
-337 22 -74 47 -155 56 -179 28 -79 45 -274 42 -479 -2 -193 -2 -193 26 -218
39 -33 82 -31 158 9 368 192 344 159 343 482 -1 301 -42 493 -123 587 -15 18
-71 95 -124 170 -98 138 -126 166 -192 194 -35 14 -182 28 -215 19z M15302
4427 c-133 -51 -226 -234 -243 -477 -4 -69 -13 -179 -19 -245 -11 -125 -6
-398 11 -540 9 -79 105 -381 130 -412 31 -36 72 -48 169 -46 254 3 359 59 498
268 97 144 110 334 27 389 -30 20 -89 19 -185 -4 -141 -33 -171 36 -131 308
34 233 37 251 65 367 56 236 23 347 -114 385 -61 17 -173 21 -208 7z M2076
4394 c-156 -21 -184 -41 -338 -235 -37 -46 -97 -120 -133 -164 -93 -113 -101
-145 -86 -342 20 -276 95 -403 295 -499 175 -84 270 -62 363 83 43 68 75 90
108 75 36 -17 51 -77 36 -149 -18 -91 -28 -99 -227 -183 -245 -103 -279 -129
-398 -297 -30 -43 -76 -103 -101 -133 -80 -96 -134 -278 -121 -404 12 -119
135 -315 227 -362 180 -91 365 -77 540 39 49 32 192 189 267 291 38 52 63 178
92 480 17 169 27 184 155 226 166 54 233 102 254 178 46 165 33 253 -41 280
-36 14 -40 13 -136 -32 -108 -51 -156 -57 -193 -27 -24 19 -24 20 -27 276 -3
256 -3 256 38 395 43 149 48 195 26 259 -35 99 -152 231 -222 250 -52 15 -256
12 -378 -5z m202 -370 c74 -51 -28 -238 -169 -308 -123 -62 -179 -58 -200 14
-22 73 43 170 165 243 112 68 162 81 204 51z m-34 -1440 c40 -39 34 -195 -11
-283 -71 -140 -226 -161 -287 -38 -47 97 15 203 178 301 65 39 96 44 120 20z
M3774 4345 c-50 -25 -71 -41 -236 -176 -136 -112 -149 -138 -311 -609 -70
-203 -70 -205 -60 -265 13 -75 175 -425 218 -471 63 -67 163 -60 350 23 44 19
109 47 145 61 47 20 81 43 122 85 70 71 89 72 199 15 139 -73 292 -59 396 36
75 68 103 129 103 221 -1 189 -66 242 -193 155 -97 -65 -150 -63 -230 9 -47
42 -72 90 -82 156 -9 63 -19 330 -16 452 3 136 -19 177 -132 255 -123 83 -187
96 -273 53z m47 -587 c23 -42 -10 -235 -49 -288 -50 -67 -162 -9 -162 84 0 34
88 175 128 207 33 25 68 24 83 -3z M7665 4267 c-67 -32 -86 -87 -73 -212 15
-140 31 -166 141 -220 112 -55 132 -142 126 -550 -6 -412 -6 -406 16 -444 30
-50 64 -71 151 -92 210 -49 247 -15 209 196 -17 96 -20 484 -5 620 23 198 106
274 203 187 110 -100 189 -97 308 15 111 104 106 162 -24 300 -83 87 -181 133
-302 140 -67 4 -73 3 -130 -33 -140 -86 -156 -86 -260 5 -32 28 -82 60 -112
71 -70 26 -207 36 -248 17z M7079 4246 c-2 -2 -42 -9 -89 -16 -101 -13 -260
-54 -310 -80 -83 -43 -245 -188 -295 -266 -43 -66 -105 -242 -112 -319 -10
-113 13 -350 40 -409 56 -121 244 -356 322 -402 157 -91 378 -118 485 -58 145
82 378 414 388 553 7 98 -29 123 -199 136 -108 9 -126 1 -234 -106 -120 -118
-200 -137 -241 -57 -28 54 -6 84 102 134 155 72 290 216 312 334 30 158 35
225 23 344 -16 168 -48 216 -141 216 -26 0 -49 -2 -51 -4z m-249 -503 c0 -25
-30 -53 -57 -53 -29 0 -30 23 -3 50 25 25 60 27 60 3z M9900 4222 c-47 -23
-70 -72 -70 -148 0 -75 -14 -154 -36 -200 -21 -44 -104 -105 -153 -111 -77
-10 -103 26 -120 167 -14 112 -38 167 -93 214 -129 111 -363 114 -436 6 -22
-32 -24 -42 -19 -128 6 -126 19 -143 156 -200 52 -22 62 -56 59 -190 -3 -134
14 -186 94 -277 54 -62 69 -67 227 -75 194 -10 200 -21 117 -195 -24 -50 -86
-158 -138 -240 -52 -83 -108 -172 -123 -200 -70 -121 -325 -320 -476 -370 -53
-17 -284 -55 -338 -55 -61 0 -248 -37 -279 -55 -86 -51 -73 -163 37 -310 110
-146 171 -195 241 -195 154 0 523 106 724 207 177 90 228 136 326 291 36 57
93 146 128 198 34 52 85 141 113 197 28 56 82 156 119 222 38 66 76 147 85
180 9 33 26 89 37 124 11 35 28 114 38 175 21 131 111 577 146 722 52 217 28
247 -196 257 -117 6 -140 4 -170 -11z M24377 4046 c-85 -23 -142 -102 -122
-167 4 -12 26 -43 50 -68 91 -100 95 -123 30 -207 -52 -66 -56 -96 -25 -169
33 -78 17 -112 -65 -134 -143 -39 -160 -11 -200 337 -24 211 -38 230 -177 244
-217 20 -250 -23 -278 -373 -21 -258 -28 -273 -165 -314 -149 -46 -193 -107
-182 -248 11 -130 50 -165 196 -176 158 -12 178 -36 211 -247 12 -80 36 -178
63 -259 24 -71 60 -202 81 -290 36 -152 105 -398 128 -458 28 -72 142 -130
299 -152 189 -26 232 36 184 260 -9 39 -22 110 -30 159 -8 49 -26 119 -40 155
-13 36 -45 152 -70 256 -25 105 -62 244 -82 310 -43 144 -54 261 -29 300 28
42 85 63 218 81 67 8 165 24 216 35 158 33 202 22 202 -49 0 -48 -39 -68 -149
-75 -150 -10 -183 -40 -182 -165 2 -220 55 -286 256 -327 162 -33 312 21 542
193 115 86 118 94 118 297 -1 247 -28 344 -117 428 -119 112 -244 154 -423
143 -178 -11 -186 5 -56 125 114 103 138 172 93 257 -30 55 -329 282 -397 301
-47 13 -38 13 -98 -3z"/>
</g>
</svg>
